dataset
version=1
nRows=33
nColumns=39
inDegrees=no
endheader
time	sternoclavicular_r2	sternoclavicular_r3	unrotscap_r3	unrotscap_r2	acromioclavicular_r2	acromioclavicular_r3	acromioclavicular_r1	unrothum_r1	unrothum_r3	unrothum_r2	elv_angle	shoulder_elv	shoulder1_r2	shoulder_rot	elbow_flexion	pro_sup	deviation	flexion	cmc_abduction	cmc_flexion	mp_flexion	ip_flexion	mcp2_flexion	mcp2_abduction	pm2_flexion	md2_flexion	mcp3_flexion	mcp3_abduction	pm3_flexion	md3_flexion	mcp4_flexion	mcp4_abduction	pm4_flexion	md4_flexion	mcp5_flexion	mcp5_abduction	pm5_flexion	md5_flexion
0.000000	-0.040219	-0.437646	0.283288	0.174318	0.142145	0.159414	-0.242335	0.016017	-0.015387	0.166749	0.147535	0.027437	0.146525	0.146525	0.959699	0.993226	0.000000	0.000000	0.000000	0.000000	0.000000	0.000000	0.000000	0.000000	0.000000	0.000000	0.000000	0.000000	0.000000	0.000000	0.000000	0.000000	0.000000	0.000000	0.000000	0.000000	0.000000	0.000000
0.005000	-0.040229	-0.437760	0.283596	0.174351	0.142133	0.159633	-0.242571	0.016547	-0.015719	0.166618	0.147426	0.027437	0.146525	0.146525	0.960052	1.001777	0.000000	0.000000	0.000000	0.000000	0.000000	0.000000	0.000000	0.000000	0.000000	0.000000	0.000000	0.000000	0.000000	0.000000	0.000000	0.000000	0.000000	0.000000	0.000000	0.000000	0.000000	0.000000
0.010000	-0.040231	-0.437847	0.283802	0.174360	0.142106	0.159798	-0.242721	0.016918	-0.015941	0.166506	0.147333	0.027437	0.146525	0.146525	0.960389	1.010085	0.000000	0.000000	0.000000	0.000000	0.000000	0.000000	0.000000	0.000000	0.000000	0.000000	0.000000	0.000000	0.000000	0.000000	0.000000	0.000000	0.000000	0.000000	0.000000	0.000000	0.000000	0.000000
0.015000	-0.040229	-0.437916	0.283941	0.174354	0.142073	0.159928	-0.242814	0.017185	-0.016090	0.166408	0.147253	0.027437	0.146525	0.146525	0.960708	1.018156	0.000000	0.000000	0.000000	0.000000	0.000000	0.000000	0.000000	0.000000	0.000000	0.000000	0.000000	0.000000	0.000000	0.000000	0.000000	0.000000	0.000000	0.000000	0.000000	0.000000	0.000000	0.000000
0.020000	-0.040224	-0.437974	0.284037	0.174340	0.142036	0.160035	-0.242869	0.017385	-0.016191	0.166321	0.147183	0.027437	0.146525	0.146525	0.961008	1.025997	0.000000	0.000000	0.000000	0.000000	0.000000	0.000000	0.000000	0.000000	0.000000	0.000000	0.000000	0.000000	0.000000	0.000000	0.000000	0.000000	0.000000	0.000000	0.000000	0.000000	0.000000	0.000000
0.025000	-0.040217	-0.438024	0.284104	0.174323	0.142000	0.160128	-0.242901	0.017543	-0.016259	0.166241	0.147122	0.027437	0.146525	0.146525	0.961289	1.033613	0.000000	0.000000	0.000000	0.000000	0.000000	0.000000	0.000000	0.000000	0.000000	0.000000	0.000000	0.000000	0.000000	0.000000	0.000000	0.000000	0.000000	0.000000	0.000000	0.000000	0.000000	0.000000
0.030000	-0.040209	-0.438069	0.284152	0.174305	0.141964	0.160212	-0.242915	0.017672	-0.016304	0.166170	0.147069	0.027437	0.146525	0.146525	0.961549	1.041012	0.000000	0.000000	0.000000	0.000000	0.000000	0.000000	0.000000	0.000000	0.000000	0.000000	0.000000	0.000000	0.000000	0.000000	0.000000	0.000000	0.000000	0.000000	0.000000	0.000000	0.000000	0.000000
0.035000	-0.040202	-0.438111	0.284188	0.174289	0.141932	0.160290	-0.242919	0.017783	-0.016333	0.166104	0.147022	0.027437	0.146525	0.146525	0.961790	1.048198	0.000000	0.000000	0.000000	0.000000	0.000000	0.000000	0.000000	0.000000	0.000000	0.000000	0.000000	0.000000	0.000000	0.000000	0.000000	0.000000	0.000000	0.000000	0.000000	0.000000	0.000000	0.000000
0.040000	-0.040194	-0.438150	0.284215	0.174275	0.141903	0.160364	-0.242915	0.017883	-0.016350	0.166045	0.146982	0.027437	0.146525	0.146525	0.962010	1.055178	0.000000	0.000000	0.000000	0.000000	0.000000	0.000000	0.000000	0.000000	0.000000	0.000000	0.000000	0.000000	0.000000	0.000000	0.000000	0.000000	0.000000	0.000000	0.000000	0.000000	0.000000	0.000000
0.045000	-0.040186	-0.438188	0.284236	0.174265	0.141878	0.160435	-0.242906	0.017974	-0.016358	0.165991	0.146949	0.027437	0.146525	0.146525	0.962211	1.061957	0.000000	0.000000	0.000000	0.000000	0.000000	0.000000	0.000000	0.000000	0.000000	0.000000	0.000000	0.000000	0.000000	0.000000	0.000000	0.000000	0.000000	0.000000	0.000000	0.000000	0.000000	0.000000
0.050000	-0.040179	-0.438224	0.284254	0.174258	0.141858	0.160504	-0.242892	0.018061	-0.016358	0.165943	0.146921	0.027437	0.146525	0.146525	0.962392	1.068540	0.000000	0.000000	0.000000	0.000000	0.000000	0.000000	0.000000	0.000000	0.000000	0.000000	0.000000	0.000000	0.000000	0.000000	0.000000	0.000000	0.000000	0.000000	0.000000	0.000000	0.000000	0.000000
0.055000	-0.040173	-0.438258	0.284268	0.174257	0.141843	0.160573	-0.242876	0.018144	-0.016352	0.165901	0.146901	0.027437	0.146525	0.146525	0.962554	1.074934	0.000000	0.000000	0.000000	0.000000	0.000000	0.000000	0.000000	0.000000	0.000000	0.000000	0.000000	0.000000	0.000000	0.000000	0.000000	0.000000	0.000000	0.000000	0.000000	0.000000	0.000000	0.000000
0.060000	-0.040167	-0.438291	0.284279	0.174259	0.141832	0.160640	-0.242857	0.018224	-0.016340	0.165864	0.146886	0.027437	0.146525	0.146525	0.962698	1.081143	0.000000	0.000000	0.000000	0.000000	0.000000	0.000000	0.000000	0.000000	0.000000	0.000000	0.000000	0.000000	0.000000	0.000000	0.000000	0.000000	0.000000	0.000000	0.000000	0.000000	0.000000	0.000000
0.065000	-0.040162	-0.438323	0.284289	0.174267	0.141827	0.160706	-0.242836	0.018302	-0.016323	0.165833	0.146878	0.027437	0.146525	0.146525	0.962823	1.087172	0.000000	0.000000	0.000000	0.000000	0.000000	0.000000	0.000000	0.000000	0.000000	0.000000	0.000000	0.000000	0.000000	0.000000	0.000000	0.000000	0.000000	0.000000	0.000000	0.000000	0.000000	0.000000
0.070000	-0.040157	-0.438353	0.284296	0.174280	0.141827	0.160772	-0.242813	0.018379	-0.016301	0.165807	0.146877	0.027437	0.146525	0.146525	0.962930	1.093027	0.000000	0.000000	0.000000	0.000000	0.000000	0.000000	0.000000	0.000000	0.000000	0.000000	0.000000	0.000000	0.000000	0.000000	0.000000	0.000000	0.000000	0.000000	0.000000	0.000000	0.000000	0.000000
0.075000	-0.040154	-0.438381	0.284302	0.174297	0.141832	0.160836	-0.242788	0.018453	-0.016273	0.165788	0.146882	0.027437	0.146525	0.146525	0.963020	1.098713	0.000000	0.000000	0.000000	0.000000	0.000000	0.000000	0.000000	0.000000	0.000000	0.000000	0.000000	0.000000	0.000000	0.000000	0.000000	0.000000	0.000000	0.000000	0.000000	0.000000	0.000000	0.000000
0.080000	-0.040151	-0.438408	0.284307	0.174320	0.141843	0.160900	-0.242762	0.018526	-0.016241	0.165775	0.146894	0.027437	0.146525	0.146525	0.963093	1.104235	0.000000	0.000000	0.000000	0.000000	0.000000	0.000000	0.000000	0.000000	0.000000	0.000000	0.000000	0.000000	0.000000	0.000000	0.000000	0.000000	0.000000	0.000000	0.000000	0.000000	0.000000	0.000000
0.085000	-0.040148	-0.438433	0.284310	0.174348	0.141859	0.160962	-0.242735	0.018596	-0.016204	0.165768	0.146912	0.027437	0.146525	0.146525	0.963150	1.109596	0.000000	0.000000	0.000000	0.000000	0.000000	0.000000	0.000000	0.000000	0.000000	0.000000	0.000000	0.000000	0.000000	0.000000	0.000000	0.000000	0.000000	0.000000	0.000000	0.000000	0.000000	0.000000
0.090000	-0.040146	-0.438457	0.284311	0.174381	0.141881	0.161023	-0.242705	0.018665	-0.016162	0.165767	0.146937	0.027437	0.146525	0.146525	0.963192	1.114802	0.000000	0.000000	0.000000	0.000000	0.000000	0.000000	0.000000	0.000000	0.000000	0.000000	0.000000	0.000000	0.000000	0.000000	0.000000	0.000000	0.000000	0.000000	0.000000	0.000000	0.000000	0.000000
0.095000	-0.040146	-0.438478	0.284310	0.174420	0.141908	0.161083	-0.242675	0.018731	-0.016115	0.165772	0.146969	0.027437	0.146525	0.146525	0.963220	1.119857	0.000000	0.000000	0.000000	0.000000	0.000000	0.000000	0.000000	0.000000	0.000000	0.000000	0.000000	0.000000	0.000000	0.000000	0.000000	0.000000	0.000000	0.000000	0.000000	0.000000	0.000000	0.000000
0.100000	-0.040145	-0.438497	0.284308	0.174463	0.141941	0.161142	-0.242642	0.018795	-0.016063	0.165784	0.147008	0.027437	0.146525	0.146525	0.963233	1.124766	0.000000	0.000000	0.000000	0.000000	0.000000	0.000000	0.000000	0.000000	0.000000	0.000000	0.000000	0.000000	0.000000	0.000000	0.000000	0.000000	0.000000	0.000000	0.000000	0.000000	0.000000	0.000000
0.105000	-0.040146	-0.438513	0.284304	0.174512	0.141980	0.161198	-0.242609	0.018855	-0.016005	0.165802	0.147054	0.027437	0.146525	0.146525	0.963233	1.129532	0.000000	0.000000	0.000000	0.000000	0.000000	0.000000	0.000000	0.000000	0.000000	0.000000	0.000000	0.000000	0.000000	0.000000	0.000000	0.000000	0.000000	0.000000	0.000000	0.000000	0.000000	0.000000
0.110000	-0.040147	-0.438527	0.284298	0.174566	0.142024	0.161253	-0.242573	0.018913	-0.015943	0.165827	0.147107	0.027437	0.146525	0.146525	0.963221	1.134161	0.000000	0.000000	0.000000	0.000000	0.000000	0.000000	0.000000	0.000000	0.000000	0.000000	0.000000	0.000000	0.000000	0.000000	0.000000	0.000000	0.000000	0.000000	0.000000	0.000000	0.000000	0.000000
0.115000	-0.040149	-0.438538	0.284289	0.174625	0.142074	0.161306	-0.242536	0.018967	-0.015876	0.165858	0.147167	0.027437	0.146525	0.146525	0.963198	1.138655	0.000000	0.000000	0.000000	0.000000	0.000000	0.000000	0.000000	0.000000	0.000000	0.000000	0.000000	0.000000	0.000000	0.000000	0.000000	0.000000	0.000000	0.000000	0.000000	0.000000	0.000000	0.000000
0.120000	-0.040152	-0.438546	0.284279	0.174689	0.142129	0.161357	-0.242498	0.019017	-0.015803	0.165896	0.147234	0.027437	0.146525	0.146525	0.963164	1.143019	0.000000	0.000000	0.000000	0.000000	0.000000	0.000000	0.000000	0.000000	0.000000	0.000000	0.000000	0.000000	0.000000	0.000000	0.000000	0.000000	0.000000	0.000000	0.000000	0.000000	0.000000	0.000000
0.125000	-0.040156	-0.438551	0.284267	0.174758	0.142190	0.161405	-0.242458	0.019064	-0.015726	0.165941	0.147307	0.027437	0.146525	0.146525	0.963121	1.147256	0.000000	0.000000	0.000000	0.000000	0.000000	0.000000	0.000000	0.000000	0.000000	0.000000	0.000000	0.000000	0.000000	0.000000	0.000000	0.000000	0.000000	0.000000	0.000000	0.000000	0.000000	0.000000
0.130000	-0.040160	-0.438553	0.284252	0.174832	0.142256	0.161451	-0.242417	0.019106	-0.015643	0.165993	0.147388	0.027437	0.146525	0.146525	0.963069	1.151370	0.000000	0.000000	0.000000	0.000000	0.000000	0.000000	0.000000	0.000000	0.000000	0.000000	0.000000	0.000000	0.000000	0.000000	0.000000	0.000000	0.000000	0.000000	0.000000	0.000000	0.000000	0.000000
0.135000	-0.040165	-0.438552	0.284235	0.174910	0.142328	0.161494	-0.242374	0.019144	-0.015555	0.166051	0.147475	0.027437	0.146525	0.146525	0.963009	1.155366	0.000000	0.000000	0.000000	0.000000	0.000000	0.000000	0.000000	0.000000	0.000000	0.000000	0.000000	0.000000	0.000000	0.000000	0.000000	0.000000	0.000000	0.000000	0.000000	0.000000	0.000000	0.000000
0.140000	-0.040170	-0.438547	0.284216	0.174993	0.142405	0.161534	-0.242329	0.019177	-0.015462	0.166116	0.147569	0.027437	0.146525	0.146525	0.962943	1.159245	0.000000	0.000000	0.000000	0.000000	0.000000	0.000000	0.000000	0.000000	0.000000	0.000000	0.000000	0.000000	0.000000	0.000000	0.000000	0.000000	0.000000	0.000000	0.000000	0.000000	0.000000	0.000000
0.145000	-0.040176	-0.438539	0.284194	0.175080	0.142487	0.161572	-0.242283	0.019205	-0.015364	0.166187	0.147670	0.027437	0.146525	0.146525	0.962871	1.163012	0.000000	0.000000	0.000000	0.000000	0.000000	0.000000	0.000000	0.000000	0.000000	0.000000	0.000000	0.000000	0.000000	0.000000	0.000000	0.000000	0.000000	0.000000	0.000000	0.000000	0.000000	0.000000
0.150000	-0.040183	-0.438526	0.284170	0.175172	0.142574	0.161606	-0.242235	0.019227	-0.015260	0.166265	0.147777	0.027437	0.146525	0.146525	0.962795	1.166670	0.000000	0.000000	0.000000	0.000000	0.000000	0.000000	0.000000	0.000000	0.000000	0.000000	0.000000	0.000000	0.000000	0.000000	0.000000	0.000000	0.000000	0.000000	0.000000	0.000000	0.000000	0.000000
0.155000	-0.040190	-0.438510	0.284143	0.175268	0.142666	0.161637	-0.242186	0.019244	-0.015152	0.166349	0.147890	0.027437	0.146525	0.146525	0.962716	1.170223	0.000000	0.000000	0.000000	0.000000	0.000000	0.000000	0.000000	0.000000	0.000000	0.000000	0.000000	0.000000	0.000000	0.000000	0.000000	0.000000	0.000000	0.000000	0.000000	0.000000	0.000000	0.000000
0.160000	-0.040198	-0.438490	0.284113	0.175368	0.142762	0.161665	-0.242134	0.019255	-0.015039	0.166439	0.148009	0.027437	0.146525	0.146525	0.962635	1.173672	0.000000	0.000000	0.000000	0.000000	0.000000	0.000000	0.000000	0.000000	0.000000	0.000000	0.000000	0.000000	0.000000	0.000000	0.000000	0.000000	0.000000	0.000000	0.000000	0.000000	0.000000	0.000000
